<mxfile host="app.diagrams.net" modified="2024-03-18T08:47:49.990Z" agent="Mozilla/5.0 (Windows NT 10.0; Win64; x64) AppleWebKit/537.36 (KHTML, like Gecko) Chrome/122.0.0.0 Safari/537.36" etag="AlM1iZqC6jeZBnOFqDlI" version="24.0.7" type="device">
  <diagram name="Page-1" id="2YBvvXClWsGukQMizWep">
    <mxGraphModel dx="1609" dy="784" grid="1" gridSize="10" guides="1" tooltips="1" connect="1" arrows="1" fold="1" page="1" pageScale="1" pageWidth="850" pageHeight="1100" math="0" shadow="0">
      <root>
        <mxCell id="0" />
        <mxCell id="1" parent="0" />
        <mxCell id="aM9ryv3xv72pqoxQDRHE-1" value="Sensors" style="shape=umlLifeline;perimeter=lifelinePerimeter;whiteSpace=wrap;html=1;container=0;dropTarget=0;collapsible=0;recursiveResize=0;outlineConnect=0;portConstraint=eastwest;newEdgeStyle={&quot;edgeStyle&quot;:&quot;elbowEdgeStyle&quot;,&quot;elbow&quot;:&quot;vertical&quot;,&quot;curved&quot;:0,&quot;rounded&quot;:0};" parent="1" vertex="1">
          <mxGeometry x="40" y="40" width="100" height="480" as="geometry" />
        </mxCell>
        <mxCell id="aM9ryv3xv72pqoxQDRHE-4" value="&lt;b&gt;Cat food&lt;/b&gt;" style="html=1;points=[];perimeter=orthogonalPerimeter;outlineConnect=0;targetShapes=umlLifeline;portConstraint=eastwest;newEdgeStyle={&quot;edgeStyle&quot;:&quot;elbowEdgeStyle&quot;,&quot;elbow&quot;:&quot;vertical&quot;,&quot;curved&quot;:0,&quot;rounded&quot;:0};align=right;" parent="aM9ryv3xv72pqoxQDRHE-1" vertex="1">
          <mxGeometry x="50" y="70" width="10" height="60" as="geometry" />
        </mxCell>
        <mxCell id="2KwhZNNTmc1wV8KBveAa-5" value="&lt;b&gt;Environment&lt;/b&gt;" style="html=1;points=[];perimeter=orthogonalPerimeter;outlineConnect=0;targetShapes=umlLifeline;portConstraint=eastwest;newEdgeStyle={&quot;edgeStyle&quot;:&quot;elbowEdgeStyle&quot;,&quot;elbow&quot;:&quot;vertical&quot;,&quot;curved&quot;:0,&quot;rounded&quot;:0};align=right;" vertex="1" parent="aM9ryv3xv72pqoxQDRHE-1">
          <mxGeometry x="50" y="140" width="10" height="60" as="geometry" />
        </mxCell>
        <mxCell id="2KwhZNNTmc1wV8KBveAa-6" value="&lt;b&gt;Presence Sensor&lt;/b&gt;" style="html=1;points=[];perimeter=orthogonalPerimeter;outlineConnect=0;targetShapes=umlLifeline;portConstraint=eastwest;newEdgeStyle={&quot;edgeStyle&quot;:&quot;elbowEdgeStyle&quot;,&quot;elbow&quot;:&quot;vertical&quot;,&quot;curved&quot;:0,&quot;rounded&quot;:0};align=right;" vertex="1" parent="aM9ryv3xv72pqoxQDRHE-1">
          <mxGeometry x="50" y="210" width="10" height="60" as="geometry" />
        </mxCell>
        <mxCell id="2KwhZNNTmc1wV8KBveAa-7" value="&lt;b&gt;Camera&lt;/b&gt;" style="html=1;points=[];perimeter=orthogonalPerimeter;outlineConnect=0;targetShapes=umlLifeline;portConstraint=eastwest;newEdgeStyle={&quot;edgeStyle&quot;:&quot;elbowEdgeStyle&quot;,&quot;elbow&quot;:&quot;vertical&quot;,&quot;curved&quot;:0,&quot;rounded&quot;:0};align=right;" vertex="1" parent="aM9ryv3xv72pqoxQDRHE-1">
          <mxGeometry x="50" y="280" width="10" height="60" as="geometry" />
        </mxCell>
        <mxCell id="aM9ryv3xv72pqoxQDRHE-5" value="Web Server" style="shape=umlLifeline;perimeter=lifelinePerimeter;whiteSpace=wrap;html=1;container=0;dropTarget=0;collapsible=0;recursiveResize=0;outlineConnect=0;portConstraint=eastwest;newEdgeStyle={&quot;edgeStyle&quot;:&quot;elbowEdgeStyle&quot;,&quot;elbow&quot;:&quot;vertical&quot;,&quot;curved&quot;:0,&quot;rounded&quot;:0};" parent="1" vertex="1">
          <mxGeometry x="360" y="40" width="100" height="480" as="geometry" />
        </mxCell>
        <mxCell id="aM9ryv3xv72pqoxQDRHE-6" value="&lt;div&gt;&lt;b&gt;&lt;br&gt;&lt;/b&gt;&lt;/div&gt;&lt;b&gt;&lt;div&gt;&lt;b&gt;&lt;br&gt;&lt;/b&gt;&lt;/div&gt;API Post&lt;/b&gt;" style="html=1;points=[];perimeter=orthogonalPerimeter;outlineConnect=0;targetShapes=umlLifeline;portConstraint=eastwest;newEdgeStyle={&quot;edgeStyle&quot;:&quot;elbowEdgeStyle&quot;,&quot;elbow&quot;:&quot;vertical&quot;,&quot;curved&quot;:0,&quot;rounded&quot;:0};align=right;" parent="aM9ryv3xv72pqoxQDRHE-5" vertex="1">
          <mxGeometry x="45" y="80" width="10" height="50" as="geometry" />
        </mxCell>
        <mxCell id="2KwhZNNTmc1wV8KBveAa-19" value="&lt;b&gt;API Get&lt;/b&gt;" style="html=1;points=[];perimeter=orthogonalPerimeter;outlineConnect=0;targetShapes=umlLifeline;portConstraint=eastwest;newEdgeStyle={&quot;edgeStyle&quot;:&quot;elbowEdgeStyle&quot;,&quot;elbow&quot;:&quot;vertical&quot;,&quot;curved&quot;:0,&quot;rounded&quot;:0};align=right;" vertex="1" parent="aM9ryv3xv72pqoxQDRHE-5">
          <mxGeometry x="45" y="330" width="10" height="60" as="geometry" />
        </mxCell>
        <mxCell id="2KwhZNNTmc1wV8KBveAa-1" value="Database" style="shape=umlLifeline;perimeter=lifelinePerimeter;whiteSpace=wrap;html=1;container=0;dropTarget=0;collapsible=0;recursiveResize=0;outlineConnect=0;portConstraint=eastwest;newEdgeStyle={&quot;edgeStyle&quot;:&quot;elbowEdgeStyle&quot;,&quot;elbow&quot;:&quot;vertical&quot;,&quot;curved&quot;:0,&quot;rounded&quot;:0};" vertex="1" parent="1">
          <mxGeometry x="520" y="40" width="100" height="480" as="geometry" />
        </mxCell>
        <mxCell id="2KwhZNNTmc1wV8KBveAa-17" value="&lt;div&gt;&lt;b&gt;&lt;br&gt;&lt;/b&gt;&lt;/div&gt;&lt;b&gt;&lt;div&gt;&lt;b&gt;&lt;br&gt;&lt;/b&gt;&lt;/div&gt;Historical DB&lt;/b&gt;" style="html=1;points=[];perimeter=orthogonalPerimeter;outlineConnect=0;targetShapes=umlLifeline;portConstraint=eastwest;newEdgeStyle={&quot;edgeStyle&quot;:&quot;elbowEdgeStyle&quot;,&quot;elbow&quot;:&quot;vertical&quot;,&quot;curved&quot;:0,&quot;rounded&quot;:0};align=left;" vertex="1" parent="2KwhZNNTmc1wV8KBveAa-1">
          <mxGeometry x="45" y="330" width="10" height="60" as="geometry" />
        </mxCell>
        <mxCell id="2KwhZNNTmc1wV8KBveAa-21" value="&lt;b&gt;Real Time DB&lt;/b&gt;" style="html=1;points=[];perimeter=orthogonalPerimeter;outlineConnect=0;targetShapes=umlLifeline;portConstraint=eastwest;newEdgeStyle={&quot;edgeStyle&quot;:&quot;elbowEdgeStyle&quot;,&quot;elbow&quot;:&quot;vertical&quot;,&quot;curved&quot;:0,&quot;rounded&quot;:0};align=left;" vertex="1" parent="2KwhZNNTmc1wV8KBveAa-1">
          <mxGeometry x="45" y="70" width="10" height="60" as="geometry" />
        </mxCell>
        <mxCell id="2KwhZNNTmc1wV8KBveAa-24" value="" style="edgeStyle=elbowEdgeStyle;rounded=0;orthogonalLoop=1;jettySize=auto;html=1;elbow=vertical;curved=0;" edge="1" parent="2KwhZNNTmc1wV8KBveAa-1" source="2KwhZNNTmc1wV8KBveAa-21" target="2KwhZNNTmc1wV8KBveAa-17">
          <mxGeometry relative="1" as="geometry">
            <mxPoint x="135" y="100" as="targetPoint" />
            <Array as="points">
              <mxPoint x="90" y="210" />
            </Array>
          </mxGeometry>
        </mxCell>
        <mxCell id="2KwhZNNTmc1wV8KBveAa-45" value="Send to another&lt;div&gt;DB Realtime&lt;/div&gt;&lt;div&gt;sensors&lt;/div&gt;" style="edgeLabel;html=1;align=center;verticalAlign=middle;resizable=0;points=[];" vertex="1" connectable="0" parent="2KwhZNNTmc1wV8KBveAa-24">
          <mxGeometry x="-0.3091" y="-3" relative="1" as="geometry">
            <mxPoint as="offset" />
          </mxGeometry>
        </mxCell>
        <mxCell id="2KwhZNNTmc1wV8KBveAa-3" value="Application" style="shape=umlLifeline;perimeter=lifelinePerimeter;whiteSpace=wrap;html=1;container=0;dropTarget=0;collapsible=0;recursiveResize=0;outlineConnect=0;portConstraint=eastwest;newEdgeStyle={&quot;edgeStyle&quot;:&quot;elbowEdgeStyle&quot;,&quot;elbow&quot;:&quot;vertical&quot;,&quot;curved&quot;:0,&quot;rounded&quot;:0};" vertex="1" parent="1">
          <mxGeometry x="190" y="40" width="100" height="480" as="geometry" />
        </mxCell>
        <mxCell id="2KwhZNNTmc1wV8KBveAa-38" value="&lt;b&gt;Botero App&lt;/b&gt;" style="html=1;points=[];perimeter=orthogonalPerimeter;outlineConnect=0;targetShapes=umlLifeline;portConstraint=eastwest;newEdgeStyle={&quot;edgeStyle&quot;:&quot;elbowEdgeStyle&quot;,&quot;elbow&quot;:&quot;vertical&quot;,&quot;curved&quot;:0,&quot;rounded&quot;:0};align=right;" vertex="1" parent="2KwhZNNTmc1wV8KBveAa-3">
          <mxGeometry x="45" y="410" width="10" height="60" as="geometry" />
        </mxCell>
        <mxCell id="2KwhZNNTmc1wV8KBveAa-13" value="" style="edgeStyle=elbowEdgeStyle;rounded=0;orthogonalLoop=1;jettySize=auto;html=1;elbow=vertical;curved=0;align=center;" edge="1" parent="1" source="2KwhZNNTmc1wV8KBveAa-7" target="aM9ryv3xv72pqoxQDRHE-6">
          <mxGeometry relative="1" as="geometry">
            <Array as="points">
              <mxPoint x="270" y="350" />
            </Array>
          </mxGeometry>
        </mxCell>
        <mxCell id="2KwhZNNTmc1wV8KBveAa-36" value="Send image of the cats" style="edgeLabel;html=1;align=left;verticalAlign=middle;resizable=0;points=[];" vertex="1" connectable="0" parent="2KwhZNNTmc1wV8KBveAa-13">
          <mxGeometry x="-0.8531" relative="1" as="geometry">
            <mxPoint as="offset" />
          </mxGeometry>
        </mxCell>
        <mxCell id="2KwhZNNTmc1wV8KBveAa-8" value="" style="edgeStyle=elbowEdgeStyle;rounded=0;orthogonalLoop=1;jettySize=auto;html=1;elbow=vertical;curved=0;" edge="1" parent="1" source="aM9ryv3xv72pqoxQDRHE-4" target="aM9ryv3xv72pqoxQDRHE-5">
          <mxGeometry relative="1" as="geometry" />
        </mxCell>
        <mxCell id="2KwhZNNTmc1wV8KBveAa-33" value="&lt;div&gt;Send&lt;/div&gt;Temperature&lt;div&gt;Humidity&lt;/div&gt;" style="edgeLabel;html=1;align=center;verticalAlign=middle;resizable=0;points=[];" vertex="1" connectable="0" parent="2KwhZNNTmc1wV8KBveAa-8">
          <mxGeometry x="-0.6123" relative="1" as="geometry">
            <mxPoint as="offset" />
          </mxGeometry>
        </mxCell>
        <mxCell id="2KwhZNNTmc1wV8KBveAa-11" value="" style="edgeStyle=elbowEdgeStyle;rounded=0;orthogonalLoop=1;jettySize=auto;html=1;elbow=vertical;curved=0;" edge="1" parent="1" source="2KwhZNNTmc1wV8KBveAa-5" target="aM9ryv3xv72pqoxQDRHE-6">
          <mxGeometry relative="1" as="geometry">
            <Array as="points">
              <mxPoint x="410" y="210" />
            </Array>
          </mxGeometry>
        </mxCell>
        <mxCell id="2KwhZNNTmc1wV8KBveAa-34" value="&lt;div&gt;Send&lt;/div&gt;Temperature" style="edgeLabel;html=1;align=center;verticalAlign=middle;resizable=0;points=[];" vertex="1" connectable="0" parent="2KwhZNNTmc1wV8KBveAa-11">
          <mxGeometry x="-0.72" y="-1" relative="1" as="geometry">
            <mxPoint as="offset" />
          </mxGeometry>
        </mxCell>
        <mxCell id="2KwhZNNTmc1wV8KBveAa-12" value="" style="edgeStyle=elbowEdgeStyle;rounded=0;orthogonalLoop=1;jettySize=auto;html=1;elbow=vertical;curved=0;" edge="1" parent="1" source="2KwhZNNTmc1wV8KBveAa-6" target="aM9ryv3xv72pqoxQDRHE-6">
          <mxGeometry relative="1" as="geometry">
            <Array as="points">
              <mxPoint x="410" y="280" />
            </Array>
          </mxGeometry>
        </mxCell>
        <mxCell id="2KwhZNNTmc1wV8KBveAa-35" value="&lt;div&gt;Send&lt;/div&gt;Cat is eating" style="edgeLabel;html=1;align=center;verticalAlign=middle;resizable=0;points=[];" vertex="1" connectable="0" parent="2KwhZNNTmc1wV8KBveAa-12">
          <mxGeometry x="-0.7476" y="-2" relative="1" as="geometry">
            <mxPoint as="offset" />
          </mxGeometry>
        </mxCell>
        <mxCell id="2KwhZNNTmc1wV8KBveAa-22" value="" style="edgeStyle=elbowEdgeStyle;rounded=0;orthogonalLoop=1;jettySize=auto;html=1;elbow=vertical;curved=0;" edge="1" parent="1" source="aM9ryv3xv72pqoxQDRHE-6" target="2KwhZNNTmc1wV8KBveAa-1">
          <mxGeometry relative="1" as="geometry" />
        </mxCell>
        <mxCell id="2KwhZNNTmc1wV8KBveAa-43" value="&lt;div style=&quot;&quot;&gt;Send&amp;nbsp;&lt;/div&gt;&lt;div&gt;&lt;div style=&quot;&quot;&gt;Realtime Sensors&lt;/div&gt;&lt;div&gt;&lt;br&gt;&lt;/div&gt;&lt;/div&gt;" style="edgeLabel;html=1;align=center;verticalAlign=middle;resizable=0;points=[];" vertex="1" connectable="0" parent="2KwhZNNTmc1wV8KBveAa-22">
          <mxGeometry x="-0.1456" y="1" relative="1" as="geometry">
            <mxPoint as="offset" />
          </mxGeometry>
        </mxCell>
        <mxCell id="2KwhZNNTmc1wV8KBveAa-25" value="" style="edgeStyle=elbowEdgeStyle;rounded=0;orthogonalLoop=1;jettySize=auto;html=1;elbow=vertical;curved=0;" edge="1" parent="1" source="2KwhZNNTmc1wV8KBveAa-19" target="2KwhZNNTmc1wV8KBveAa-1">
          <mxGeometry relative="1" as="geometry">
            <Array as="points">
              <mxPoint x="480" y="380" />
            </Array>
          </mxGeometry>
        </mxCell>
        <mxCell id="2KwhZNNTmc1wV8KBveAa-48" value="Request Sensor Status" style="edgeLabel;html=1;align=center;verticalAlign=middle;resizable=0;points=[];" vertex="1" connectable="0" parent="2KwhZNNTmc1wV8KBveAa-25">
          <mxGeometry x="0.0744" y="-2" relative="1" as="geometry">
            <mxPoint as="offset" />
          </mxGeometry>
        </mxCell>
        <mxCell id="2KwhZNNTmc1wV8KBveAa-30" value="" style="edgeStyle=elbowEdgeStyle;rounded=0;orthogonalLoop=1;jettySize=auto;html=1;elbow=vertical;curved=0;dashed=1;" edge="1" parent="1" source="2KwhZNNTmc1wV8KBveAa-17" target="aM9ryv3xv72pqoxQDRHE-5">
          <mxGeometry relative="1" as="geometry">
            <Array as="points">
              <mxPoint x="500" y="420" />
            </Array>
          </mxGeometry>
        </mxCell>
        <mxCell id="2KwhZNNTmc1wV8KBveAa-49" value="Recieve Sensor Status" style="edgeLabel;html=1;align=center;verticalAlign=middle;resizable=0;points=[];" vertex="1" connectable="0" parent="2KwhZNNTmc1wV8KBveAa-30">
          <mxGeometry x="0.1704" y="1" relative="1" as="geometry">
            <mxPoint x="16" as="offset" />
          </mxGeometry>
        </mxCell>
        <mxCell id="2KwhZNNTmc1wV8KBveAa-31" value="" style="edgeStyle=elbowEdgeStyle;rounded=0;orthogonalLoop=1;jettySize=auto;html=1;elbow=vertical;curved=0;dashed=1;" edge="1" parent="1" target="2KwhZNNTmc1wV8KBveAa-7">
          <mxGeometry relative="1" as="geometry">
            <mxPoint x="405" y="410" as="sourcePoint" />
            <mxPoint x="250" y="410" as="targetPoint" />
            <Array as="points">
              <mxPoint x="340" y="410" />
            </Array>
          </mxGeometry>
        </mxCell>
        <mxCell id="2KwhZNNTmc1wV8KBveAa-50" value="Recieve presence sensor status" style="edgeLabel;html=1;align=center;verticalAlign=middle;resizable=0;points=[];" vertex="1" connectable="0" parent="2KwhZNNTmc1wV8KBveAa-31">
          <mxGeometry x="0.1882" y="-1" relative="1" as="geometry">
            <mxPoint as="offset" />
          </mxGeometry>
        </mxCell>
        <mxCell id="2KwhZNNTmc1wV8KBveAa-32" value="" style="edgeStyle=elbowEdgeStyle;rounded=0;orthogonalLoop=1;jettySize=auto;html=1;elbow=vertical;curved=0;" edge="1" parent="1" target="2KwhZNNTmc1wV8KBveAa-19">
          <mxGeometry relative="1" as="geometry">
            <mxPoint x="100" y="370" as="sourcePoint" />
            <mxPoint x="410" y="380" as="targetPoint" />
            <Array as="points">
              <mxPoint x="280" y="370" />
            </Array>
          </mxGeometry>
        </mxCell>
        <mxCell id="2KwhZNNTmc1wV8KBveAa-37" value="Send when Presence Sensor is on" style="edgeLabel;html=1;align=left;verticalAlign=middle;resizable=0;points=[];" vertex="1" connectable="0" parent="2KwhZNNTmc1wV8KBveAa-32">
          <mxGeometry x="-0.5934" y="-1" relative="1" as="geometry">
            <mxPoint as="offset" />
          </mxGeometry>
        </mxCell>
        <mxCell id="2KwhZNNTmc1wV8KBveAa-39" value="" style="edgeStyle=elbowEdgeStyle;rounded=0;orthogonalLoop=1;jettySize=auto;html=1;elbow=vertical;curved=0;" edge="1" parent="1" source="2KwhZNNTmc1wV8KBveAa-38" target="2KwhZNNTmc1wV8KBveAa-19">
          <mxGeometry relative="1" as="geometry" />
        </mxCell>
        <mxCell id="2KwhZNNTmc1wV8KBveAa-41" value="Request Sensor Status" style="edgeLabel;html=1;align=center;verticalAlign=middle;resizable=0;points=[];" vertex="1" connectable="0" parent="2KwhZNNTmc1wV8KBveAa-39">
          <mxGeometry x="-0.1789" relative="1" as="geometry">
            <mxPoint as="offset" />
          </mxGeometry>
        </mxCell>
        <mxCell id="2KwhZNNTmc1wV8KBveAa-40" value="" style="edgeStyle=elbowEdgeStyle;rounded=0;orthogonalLoop=1;jettySize=auto;html=1;elbow=vertical;curved=0;dashed=1;" edge="1" parent="1" source="2KwhZNNTmc1wV8KBveAa-19" target="2KwhZNNTmc1wV8KBveAa-38">
          <mxGeometry relative="1" as="geometry">
            <mxPoint x="415" y="480" as="sourcePoint" />
            <mxPoint x="260" y="480" as="targetPoint" />
            <Array as="points">
              <mxPoint x="350" y="480" />
            </Array>
          </mxGeometry>
        </mxCell>
        <mxCell id="2KwhZNNTmc1wV8KBveAa-42" value="Recieve Sensor Status" style="edgeLabel;html=1;align=center;verticalAlign=middle;resizable=0;points=[];" vertex="1" connectable="0" parent="2KwhZNNTmc1wV8KBveAa-40">
          <mxGeometry x="0.3953" y="3" relative="1" as="geometry">
            <mxPoint as="offset" />
          </mxGeometry>
        </mxCell>
        <mxCell id="2KwhZNNTmc1wV8KBveAa-44" value="" style="edgeStyle=elbowEdgeStyle;rounded=0;orthogonalLoop=1;jettySize=auto;html=1;elbow=vertical;curved=0;" edge="1" parent="1" source="aM9ryv3xv72pqoxQDRHE-6" target="2KwhZNNTmc1wV8KBveAa-3">
          <mxGeometry relative="1" as="geometry" />
        </mxCell>
      </root>
    </mxGraphModel>
  </diagram>
</mxfile>
